<?xml version="1.0" encoding="iso-8859-1"?>
<!-- Generator: Adobe Illustrator 22.1.0, SVG Export Plug-In . SVG Version: 6.00 Build 0)  -->
<svg xmlns="http://www.w3.org/2000/svg" xmlns:xlink="http://www.w3.org/1999/xlink" version="1.1" id="Layer_1_1_" x="0px" y="0px" viewBox="0 0 64 64" style="enable-background:new 0 0 64 64;" xml:space="preserve" width="512" height="512">
<g>
	<path d="M24,29h16V19H24V29z M26,21h12v2H26V21z M26,25h12v2H26V25z"/>
	<polygon points="18,13 46,13 46,39.046 48,37.508 48,16.438 48,14 48,11 16,11 16,37.508 18,39.046  "/>
	<path d="M36,46.217c0.912-0.365,1.778-0.846,2.561-1.449L44,40.584V15H20v25.584l5.439,4.184c0.783,0.602,1.649,1.084,2.561,1.449   V40h-4.762L32,32.698L40.762,40H36V46.217z M22,31V17h20v14H22z"/>
	<polygon points="50,18.284 50,35.969 60.45,27.931  "/>
	<path d="M48,6c0-1.654-1.346-3-3-3H19c-1.654,0-3,1.346-3,3v3h32V6z M26,7h-2V5h2V7z M36,7h-8V5h8V7z M40,7h-2V5h2V7z"/>
	<path d="M39.78,46.354c-0.285,0.219-0.58,0.425-0.882,0.618L61,60.234V30.031L39.78,46.354z"/>
	<path d="M32,49c-1.649,0-3.283-0.334-4.804-0.952L5.61,61H58.39L36.804,48.048C35.283,48.666,33.649,49,32,49z"/>
	<polygon points="14,18.284 3.55,27.931 14,35.969  "/>
	<path d="M32,47c0.673,0,1.342-0.071,2-0.197V38h1.238L32,35.302L28.762,38H30v8.803C30.658,46.929,31.327,47,32,47z"/>
	<path d="M24.22,46.354L3,30.031v30.203l22.102-13.261C24.8,46.779,24.505,46.574,24.22,46.354z"/>
</g>
</svg>
