<?xml version="1.0" encoding="iso-8859-1"?>
<!-- Generator: Adobe Illustrator 16.0.0, SVG Export Plug-In . SVG Version: 6.00 Build 0)  -->
<!DOCTYPE svg PUBLIC "-//W3C//DTD SVG 1.1//EN" "http://www.w3.org/Graphics/SVG/1.1/DTD/svg11.dtd">
<svg version="1.1" id="Capa_1" xmlns="http://www.w3.org/2000/svg" xmlns:xlink="http://www.w3.org/1999/xlink" x="0px" y="0px"
	 width="369.819px" height="369.819px" viewBox="0 0 369.819 369.819" style="enable-background:new 0 0 369.819 369.819;"
	 xml:space="preserve">
<g>
	<path d="M351.143,0H18.676C12.49,0,7.47,5.021,7.47,11.207v347.407c0,6.183,5.02,11.206,11.206,11.206h332.467
		c6.186,0,11.207-5.023,11.207-11.206V11.207C362.35,5.021,357.328,0,351.143,0z M112.531,132.116c0,4.755-3.406,8.702-7.912,9.554
		v86.479c4.506,0.858,7.912,4.799,7.912,9.554v104.061c0,5.379-4.358,9.735-9.731,9.735H48.031c-5.379,0-9.737-4.356-9.737-9.735
		V237.703c0-4.755,3.405-8.695,7.912-9.554V141.67c-4.506-0.853-7.912-4.799-7.912-9.554V28.055c0-5.379,4.358-9.732,9.737-9.732
		H102.8c5.373,0,9.731,4.353,9.731,9.732V132.116z M145.687,106.469V26.15c0-6.186,5.021-11.207,11.206-11.207h168.103
		c6.187,0,11.206,5.021,11.206,11.207v80.318c0,6.186-5.02,11.206-11.206,11.206H156.893
		C150.708,117.675,145.687,112.655,145.687,106.469z M150.355,151.99v-7.705c0-6.186,5.02-11.207,11.207-11.207h68.64
		c6.184,0,11.207,5.021,11.207,11.207v7.705c0,6.186-5.023,11.207-11.207,11.207h-68.64
		C155.375,163.197,150.355,158.176,150.355,151.99z M202.033,343.154c0,3.419-2.782,6.2-6.205,6.2h-34.904
		c-3.426,0-6.205-2.781-6.205-6.2v-34.906c0-3.426,2.779-6.205,6.205-6.205h34.904c3.423,0,6.205,2.779,6.205,6.205V343.154z
		 M202.033,285.02c0,3.421-2.782,6.2-6.205,6.2h-34.904c-3.426,0-6.205-2.779-6.205-6.2v-34.906c0-3.425,2.779-6.2,6.205-6.2h34.904
		c3.423,0,6.205,2.775,6.205,6.2V285.02z M202.033,228.986c0,3.42-2.782,6.199-6.205,6.199h-34.904
		c-3.426,0-6.205-2.779-6.205-6.199V194.08c0-3.425,2.779-6.199,6.205-6.199h34.904c3.423,0,6.205,2.774,6.205,6.199V228.986z
		 M262.267,343.154c0,3.419-2.779,6.2-6.202,6.2h-34.902c-3.426,0-6.205-2.781-6.205-6.2v-34.906c0-3.426,2.779-6.205,6.205-6.205
		h34.902c3.423,0,6.202,2.779,6.202,6.205V343.154z M262.267,285.02c0,3.421-2.779,6.2-6.202,6.2h-34.902
		c-3.426,0-6.205-2.779-6.205-6.2v-34.906c0-3.425,2.779-6.2,6.205-6.2h34.902c3.423,0,6.202,2.775,6.202,6.2V285.02z
		 M262.267,228.986c0,3.42-2.779,6.199-6.202,6.199h-34.902c-3.426,0-6.205-2.779-6.205-6.199V194.08
		c0-3.425,2.779-6.199,6.205-6.199h34.902c3.423,0,6.202,2.774,6.202,6.199V228.986z M320.401,343.154c0,3.419-2.779,6.2-6.205,6.2
		H279.29c-3.419,0-6.197-2.781-6.197-6.2v-34.906c0-3.426,2.778-6.205,6.197-6.205h34.906c3.426,0,6.205,2.779,6.205,6.205V343.154z
		 M320.401,285.02c0,3.421-2.779,6.2-6.205,6.2H279.29c-3.419,0-6.197-2.779-6.197-6.2v-34.906c0-3.425,2.778-6.2,6.197-6.2h34.906
		c3.426,0,6.205,2.775,6.205,6.2V285.02z M320.401,228.986c0,3.42-2.779,6.199-6.205,6.199H279.29c-3.419,0-6.197-2.779-6.197-6.199
		V194.08c0-3.425,2.778-6.199,6.197-6.199h34.906c3.426,0,6.205,2.774,6.205,6.199V228.986z M340.166,151.99
		c0,6.186-5.023,11.207-11.206,11.207h-68.641c-6.184,0-11.207-5.021-11.207-11.207v-7.705c0-6.186,5.023-11.207,11.207-11.207
		h68.641c6.183,0,11.206,5.021,11.206,11.207V151.99z"/>
</g>
<g>
</g>
<g>
</g>
<g>
</g>
<g>
</g>
<g>
</g>
<g>
</g>
<g>
</g>
<g>
</g>
<g>
</g>
<g>
</g>
<g>
</g>
<g>
</g>
<g>
</g>
<g>
</g>
<g>
</g>
</svg>
